<svg viewBox="0 0 96 96" xmlns="http://www.w3.org/2000/svg" xmlns:xlink="http://www.w3.org/1999/xlink" id="Icons_BrowserWindow" overflow="hidden"><path d="M8 17 8 79 88 79 88 17ZM77 23C78.1046 23 79 23.8954 79 25 79 26.1046 78.1046 27 77 27 75.8954 27 75 26.1046 75 25 75 23.8954 75.8954 23 77 23ZM70 23C71.1046 23 72 23.8954 72 25 72 26.1046 71.1046 27 70 27 68.8954 27 68 26.1046 68 25 68 23.8954 68.8954 23 70 23ZM63 23C64.1046 23 65 23.8954 65 25 65 26.1046 64.1046 27 63 27 61.8954 27 61 26.1046 61 25 61 23.8954 61.8954 23 63 23ZM82 73 14 73 14 33 82 33Z" fill="#C00000"/></svg>