<svg xmlns="http://www.w3.org/2000/svg" viewBox="0 0 420 420" role="img" aria-labelledby="title desc">
  <title id="title">Clube Das Ofertas</title>
  <desc id="desc">Logotipo circular preto com lettering amarelo e etiqueta vermelha ofertas.</desc>
  <rect width="420" height="420" fill="#000000"/>
  <circle cx="210" cy="210" r="196" fill="#000000"/>
  <path d="M58 108c0-13 10-23 23-23h44c18 0 32 14 32 32v8h35c36 0 66 29 66 66v55c0 19-15 34-34 34H95c-19 0-34-15-34-34v-69c0-18 14-32 32-32h71v-7c0-9-7-16-16-16H90c-18 0-32-14-32-32z" fill="#ffe500"/>
  <rect x="83" y="164" width="86" height="72" rx="18" fill="#000000"/>
  <circle cx="102" cy="318" r="18" fill="#ffe500"/>
  <circle cx="145" cy="318" r="18" fill="#ffe500"/>
  <text x="78" y="106" fill="#ffffff" font-family="Montserrat, Arial, sans-serif" font-size="44" font-weight="700">clube</text>
  <text x="210" y="243" fill="#ffe500" font-family="Montserrat, Arial, sans-serif" font-size="126" font-weight="700">as</text>
  <path d="M274 266c34-5 66-10 96-15 8-1 16 1 23 6l34 24c4 3 5 7 4 12l-11 37c-1 5-5 8-10 10l-122 28c-8 2-16 0-22-5l-18-15c-5-4-8-9-8-15v-52c0-15 12-28 27-30z" fill="#d71912"/>
  <path d="M254 268c52-8 106-17 130-20l40 27" fill="none" stroke="#ffffff" stroke-linecap="round" stroke-width="4" stroke-dasharray="10 12"/>
  <path d="M396 346c-31-31-75-52-121-60-59-10-126 1-180 31" fill="none" stroke="#ffffff" stroke-linecap="round" stroke-width="4"/>
  <text x="268" y="345" fill="#ffffff" font-family="'Brush Script MT', 'Segoe Script', cursive" font-size="62" font-weight="700" transform="rotate(-8 268 345)">ofertas</text>
</svg>
